<svg xmlns="http://www.w3.org/2000/svg" width="3712.741" height="1658.863" viewBox="0 0 3712.741 1658.863"><defs><style>.a{opacity:0.1;}.b{fill:#bbb;fill-rule:evenodd;}</style></defs><g class="a" transform="translate(313.042 -121.995)"><path class="b" d="M1409,473.649,929.123,538.692-313.042,1780.858h116.891L944.556,640.151l464.723-62.992,402.942-402.942,120.294,120.248,46.72,46.766L2225.748,587.7l.28-.279L1760.653,121.995Z" transform="translate(0 0)"/><path class="b" d="M755.638,1156.706l959.146-959.145L1641.3,124.125,705.189,1060.236l-451.154,61.127-562.311,562.311q68.891-.28,135.589-.373l463.6-463.6Z" transform="translate(217.453 97.183)"/><path class="b" d="M1388.915,373.123,1142.5,126.7l-1437.2,1437.109q46.23-.21,91.667-.466l823.6-823.6,464.723-62.992Z" transform="translate(836.554 214.853)"/><path class="b" d="M220.447,1271.975,1301.24,191.276l-58.329-58.282L405.832,970.025-45.274,1031.2l-244.6,244.6-.606.606c177.645-1.073,345.873-2.285,510.137-3.637Z" transform="translate(1029.324 501.795)"/><path class="b" d="M1778.227,960.5,957.282,139.554,689.182,407.7,224.459,470.646-276.725,971.83l-.791.792c625.161-5.269,1207.568-11.563,2056.35-11.563Z" transform="translate(1620.866 801.148)"/></g></svg>