<svg xmlns="http://www.w3.org/2000/svg" xmlns:xlink="http://www.w3.org/1999/xlink" width="275.593" height="137.442" viewBox="0 0 275.593 137.442"><defs><style>.a{fill:#fff;}.b{filter:url(#e);}.c{filter:url(#c);}.d{filter:url(#a);}</style><filter id="a" x="58.024" y="23.13" width="217.568" height="114.312" filterUnits="userSpaceOnUse"><feOffset dy="3" input="SourceAlpha"/><feGaussianBlur stdDeviation="3" result="b"/><feFlood flood-opacity="0.161"/><feComposite operator="in" in2="b"/><feComposite in="SourceGraphic"/></filter><filter id="c" x="28.294" y="0.926" width="237.634" height="122.177" filterUnits="userSpaceOnUse"><feOffset dy="3" input="SourceAlpha"/><feGaussianBlur stdDeviation="3" result="d"/><feFlood flood-opacity="0.161"/><feComposite operator="in" in2="d"/><feComposite in="SourceGraphic"/></filter><filter id="e" x="30.347" y="0" width="41.879" height="27.259" filterUnits="userSpaceOnUse"><feOffset dy="3" input="SourceAlpha"/><feGaussianBlur stdDeviation="3" result="f"/><feFlood flood-opacity="0.161"/><feComposite operator="in" in2="f"/><feComposite in="SourceGraphic"/></filter></defs><g transform="translate(-115.703 -132.87)"><g class="d" transform="matrix(1, 0, 0, 1, 115.7, 132.87)"><path class="a" d="M350.2,258.312H186.431a3.7,3.7,0,1,1,0-7.4H347.5l26.028-81.5h-8.032a3.7,3.7,0,0,1,0-7.407h13.1a3.7,3.7,0,0,1,3.527,4.831l-28.389,88.907A3.706,3.706,0,0,1,350.2,258.312Z" transform="translate(-115.7 -132.87)"/></g><g class="c" transform="matrix(1, 0, 0, 1, 115.7, 132.87)"><path class="a" d="M339.381,243.973H156.7a3.7,3.7,0,1,1,0-7.406H336.64L363.924,147.2H188.982a3.7,3.7,0,1,1,0-7.408H368.927a3.712,3.712,0,0,1,3.546,4.786l-29.549,96.769A3.707,3.707,0,0,1,339.381,243.973Z" transform="translate(-115.7 -132.87)"/></g><g class="b" transform="matrix(1, 0, 0, 1, 115.7, 132.87)"><path class="a" d="M174.3,148.129H159.68a4.63,4.63,0,1,1,0-9.259H174.3a4.63,4.63,0,1,1,0,9.259Z" transform="translate(-115.7 -132.87)"/></g><path class="a" d="M134.027,201.659H119.41a3.705,3.705,0,1,1,0-7.411h14.617a3.705,3.705,0,0,1,0,7.411Z"/><path class="a" d="M154.633,228.652h-14.62a3.7,3.7,0,1,1,0-7.407h14.62a3.7,3.7,0,1,1,0,7.407Z"/><path class="a" d="M175.441,258.312H160.822a3.7,3.7,0,1,1,0-7.4h14.619a3.7,3.7,0,1,1,0,7.4Z"/><path class="a" d="M174.527,153.41a3.435,3.435,0,0,0,0,6.869h24.314a3.426,3.426,0,0,1,.862,6.743H137.467a3.434,3.434,0,0,0,0,6.868h63.682a3.434,3.434,0,0,1,0,6.867H185.2c-.148-.009-.287-.026-.437-.026H154.265a3.435,3.435,0,0,0,0,6.869h35.412a3.433,3.433,0,1,1,0,6.867H145.9a3.435,3.435,0,0,0,0,6.869h35.538a3.435,3.435,0,0,1,1.281,6.623H141.641v.081h-6.07a3.434,3.434,0,0,0,0,6.868h49.916a3.436,3.436,0,0,1,0,6.871H165.516a3.433,3.433,0,1,0,0,6.867H331.093l22.031-75.236Zm108.384,26.8-12.438-.623q.689-3.364-.588-4.927a5.494,5.494,0,0,0-4.22-1.715,6.407,6.407,0,0,0-4.518,1.194,5.924,5.924,0,0,0-2.084,3.569,3.984,3.984,0,0,0,.581,3.539,17.234,17.234,0,0,0,4.85,3.231q8.036,2.82,11.548,6.523t2.245,9.809a13.706,13.706,0,0,1-6.019,9.024,22.782,22.782,0,0,1-12.061,3.293l-1.359,6.5-5.871-.3,1.364-6.494q-7.13-.945-11.247-4.824t-2.466-10.856l.077-.156,12.179.61q-.827,3.878.874,5.481A8.02,8.02,0,0,0,259,204.874a6.985,6.985,0,0,0,4.643-1.142,5.683,5.683,0,0,0,2.209-3.48q.539-2.646-.578-4.01a14.167,14.167,0,0,0-4.837-3.051q-8.279-3.157-11.714-6.6t-2.089-9.575a13.51,13.51,0,0,1,6.148-8.966,23.36,23.36,0,0,1,12.451-3.359l1.452-6.818,5.832.295-1.457,6.946q6.521,1.176,9.785,5.161T282.911,180.211Z"/></g></svg>