<svg xmlns="http://www.w3.org/2000/svg" xmlns:xlink="http://www.w3.org/1999/xlink" width="138.908" height="172.096" viewBox="0 0 138.908 172.096"><defs><style>.a{fill:#fff;}.b{filter:url(#i);}.c{filter:url(#g);}.d{filter:url(#e);}.e{filter:url(#c);}.f{filter:url(#a);}</style><filter id="a" x="0" y="99.683" width="44.078" height="72.413" filterUnits="userSpaceOnUse"><feOffset dy="3" input="SourceAlpha"/><feGaussianBlur stdDeviation="3" result="b"/><feFlood flood-opacity="0.161"/><feComposite operator="in" in2="b"/><feComposite in="SourceGraphic"/></filter><filter id="c" x="31.611" y="83.982" width="44.074" height="88.114" filterUnits="userSpaceOnUse"><feOffset dy="3" input="SourceAlpha"/><feGaussianBlur stdDeviation="3" result="d"/><feFlood flood-opacity="0.161"/><feComposite operator="in" in2="d"/><feComposite in="SourceGraphic"/></filter><filter id="e" x="63.223" y="68.281" width="44.074" height="103.814" filterUnits="userSpaceOnUse"><feOffset dy="3" input="SourceAlpha"/><feGaussianBlur stdDeviation="3" result="f"/><feFlood flood-opacity="0.161"/><feComposite operator="in" in2="f"/><feComposite in="SourceGraphic"/></filter><filter id="g" x="94.83" y="52.58" width="44.078" height="119.515" filterUnits="userSpaceOnUse"><feOffset dy="3" input="SourceAlpha"/><feGaussianBlur stdDeviation="3" result="h"/><feFlood flood-opacity="0.161"/><feComposite operator="in" in2="h"/><feComposite in="SourceGraphic"/></filter><filter id="i" x="0.004" y="0" width="138.869" height="77.899" filterUnits="userSpaceOnUse"><feOffset dy="3" input="SourceAlpha"/><feGaussianBlur stdDeviation="3" result="j"/><feFlood flood-opacity="0.161"/><feComposite operator="in" in2="j"/><feComposite in="SourceGraphic"/></filter></defs><g transform="translate(-840.37 -102.721)"><g class="f" transform="matrix(1, 0, 0, 1, 840.37, 102.72)"><path class="a" d="M870.125,130.1h-15.43a5.328,5.328,0,0,0-5.324,5.324v43.765a5.328,5.328,0,0,0,5.324,5.324h15.43a5.328,5.328,0,0,0,5.324-5.324V135.428A5.328,5.328,0,0,0,870.125,130.1Zm-2,7.319V177.2h-11.44V137.423Z" transform="translate(-840.37 -24.42)"/></g><g class="e" transform="matrix(1, 0, 0, 1, 840.37, 102.72)"><path class="a" d="M876.906,126.736h-15.43a5.327,5.327,0,0,0-5.324,5.319v59.471a5.328,5.328,0,0,0,5.324,5.324h15.43a5.327,5.327,0,0,0,5.319-5.324V132.055A5.326,5.326,0,0,0,876.906,126.736Zm-2,7.319V189.53H863.47V134.055Z" transform="translate(-815.54 -36.75)"/></g><g class="d" transform="matrix(1, 0, 0, 1, 840.37, 102.72)"><path class="a" d="M883.686,123.368H868.251a5.323,5.323,0,0,0-5.319,5.319v75.171a5.324,5.324,0,0,0,5.319,5.324h15.435a5.324,5.324,0,0,0,5.319-5.324V128.687A5.323,5.323,0,0,0,883.686,123.368Zm-2,7.319v71.176h-11.44V130.687Z" transform="translate(-790.71 -49.09)"/></g><g class="c" transform="matrix(1, 0, 0, 1, 840.37, 102.72)"><path class="a" d="M890.466,120H875.032a5.323,5.323,0,0,0-5.32,5.319v90.872a5.324,5.324,0,0,0,5.32,5.324h15.435a5.328,5.328,0,0,0,5.324-5.324V125.319A5.327,5.327,0,0,0,890.466,120Zm-2,7.314V214.2h-11.44V127.314Z" transform="translate(-765.88 -61.42)"/></g><g class="b" transform="matrix(1, 0, 0, 1, 840.37, 102.72)"><path class="a" d="M853.078,168.616l.28,0c5.207,0,50.594-1.4,107.347-46.627l-2.172,9.673a3.659,3.659,0,0,0,2.76,4.368,3.557,3.557,0,0,0,.816.093,3.647,3.647,0,0,0,3.571-2.858l4.508-20.088c.019-.075-.01-.149,0-.224a3.535,3.535,0,0,0,.019-1.04,3.288,3.288,0,0,0-.084-.415,3.54,3.54,0,0,0-.079-.392,3.658,3.658,0,0,0-.247-.443,3.306,3.306,0,0,0-.2-.354,3.532,3.532,0,0,0-.737-.779,1.448,1.448,0,0,0-.154-.145,3.634,3.634,0,0,0-1.17-.527c-.047-.009-.079-.042-.126-.056-.089-.019-.182.009-.275,0a3.362,3.362,0,0,0-.527-.084H947.857a3.66,3.66,0,1,0,0,7.319h8.6c-28.712,22.9-54.287,33.915-70.873,39.14-19.8,6.238-32.358,6.126-32.441,6.121a3.269,3.269,0,0,0-2.583.965,3.719,3.719,0,0,0-1.184,2.625,3.616,3.616,0,0,0,1.021,2.606A3.7,3.7,0,0,0,853.078,168.616Zm.28-1.161Z" transform="translate(-840.37 -102.72)"/></g></g></svg>