<svg xmlns="http://www.w3.org/2000/svg" xmlns:xlink="http://www.w3.org/1999/xlink" width="179" height="223" viewBox="0 0 179 223"><defs><style>.a{fill:#fff;}.b{filter:url(#a);}</style><filter id="a" x="0" y="0" width="179" height="223" filterUnits="userSpaceOnUse"><feOffset dy="3" input="SourceAlpha"/><feGaussianBlur stdDeviation="6" result="b"/><feFlood flood-opacity="0.471"/><feComposite operator="in" in2="b"/><feComposite in="SourceGraphic"/></filter></defs><g class="b" transform="matrix(1, 0, 0, 1, 0, 0)"><path class="a" d="M113.644,93.5l25.594,8.533a5.5,5.5,0,0,1,0,10.433l-66,22a5.486,5.486,0,0,1-3.476,0l-66-22a5.5,5.5,0,0,1,0-10.433L29.356,93.5,3.762,84.967a5.5,5.5,0,0,1,0-10.433l66-22a5.486,5.486,0,0,1,3.476,0l66,22a5.5,5.5,0,0,1,0,10.433ZM71.5,63.547,22.894,79.75,71.5,95.953l48.606-16.2Zm1.738,43.42a5.486,5.486,0,0,1-3.476,0L46.75,99.3,22.894,107.25l48.606,16.2,48.606-16.2L96.25,99.3ZM66,25.223h0V5.5a5.5,5.5,0,1,1,11,0V25.223l4.361-4.361a5.5,5.5,0,1,1,7.777,7.777l-13.75,13.75a5.5,5.5,0,0,1-7.777,0L53.633,28.41a5.5,5.5,0,1,1,7.777-7.777ZM77,161.777V181.5a5.5,5.5,0,1,1-11,0V161.777l-4.59,4.59a5.5,5.5,0,1,1-7.777-7.777l13.978-13.978a5.5,5.5,0,0,1,7.777,0l13.75,13.75a5.5,5.5,0,0,1-7.777,7.777Z" transform="translate(18 15)"/></g></svg>