<svg xmlns="http://www.w3.org/2000/svg" xmlns:xlink="http://www.w3.org/1999/xlink" width="166.214" height="186.852" viewBox="0 0 166.214 186.852"><defs><style>.a{fill:#fff;stroke:#fff;stroke-width:4px;}.b{filter:url(#c);}.c{filter:url(#a);}</style><filter id="a" x="14.936" y="11.301" width="136.346" height="147.945" filterUnits="userSpaceOnUse"><feOffset dy="3" input="SourceAlpha"/><feGaussianBlur stdDeviation="3" result="b"/><feFlood flood-opacity="0.161"/><feComposite operator="in" in2="b"/><feComposite in="SourceGraphic"/></filter><filter id="c" x="33.557" y="31.516" width="99.1" height="99.128" filterUnits="userSpaceOnUse"><feOffset dy="3" input="SourceAlpha"/><feGaussianBlur stdDeviation="3" result="d"/><feFlood flood-opacity="0.161"/><feComposite operator="in" in2="d"/><feComposite in="SourceGraphic"/></filter></defs><g transform="translate(-102.968 -528.752)"><g transform="translate(104.968 530.752)"><g transform="translate(56.199 140.242)"><path class="a" d="M157.828,634.066H150.6a21.329,21.329,0,0,1-21.305-21.305v-19.8a1.5,1.5,0,0,1,1.5-1.5h46.836a1.5,1.5,0,0,1,1.5,1.5v19.8A21.329,21.329,0,0,1,157.828,634.066Zm-25.531-39.6v18.3a18.322,18.322,0,0,0,18.3,18.3h7.229a18.323,18.323,0,0,0,18.3-18.3v-18.3Z" transform="translate(-129.294 -591.456)"/></g><g transform="translate(23.945 17.302)"><g class="c" transform="matrix(1, 0, 0, 1, -25.95, -19.3)"><path class="a" d="M195.924,664.187H149.089a1.5,1.5,0,0,1-1.476-1.227c-1.536-8.22-6.577-16.772-14.19-24.084a57.919,57.919,0,0,1-17.731-48.659,58.961,58.961,0,0,1,51.664-51.669,28.98,28.98,0,0,1,5.152-.307c.924,0,1.77.076,2.618.157.755.069,1.513.141,2.34.141A58.9,58.9,0,0,1,229.3,590.215a57.925,57.925,0,0,1-17.715,48.665c-7.61,7.307-12.649,15.86-14.185,24.08A1.5,1.5,0,0,1,195.924,664.187Zm-45.611-3.006H194.7c1.9-8.444,7.12-17.087,14.811-24.473a54.941,54.941,0,0,0,16.8-46.166A55.839,55.839,0,0,0,177.3,541.535a23.415,23.415,0,0,1-2.456-.148c-.755-.069-1.513-.141-2.338-.141a26.77,26.77,0,0,0-4.734.275,55.962,55.962,0,0,0-49.1,49.026A54.943,54.943,0,0,0,135.5,636.7C143.193,644.094,148.414,652.737,150.313,661.181Z" transform="translate(-89.39 -518.94)"/></g></g><g transform="translate(50.576 150.125)"><path class="a" d="M186.441,598.74h-58.08a1.5,1.5,0,0,1,0-3.006h58.08a1.5,1.5,0,0,1,0,3.006Z" transform="translate(-126.86 -595.734)"/></g><g transform="translate(50.576 160.218)"><path class="a" d="M186.441,603.106h-58.08a1.5,1.5,0,1,1,0-3h58.08a1.5,1.5,0,1,1,0,3Z" transform="translate(-126.86 -600.103)"/></g><g transform="translate(50.576 170.286)"><path class="a" d="M186.441,607.467h-58.08a1.5,1.5,0,0,1,0-3.006h58.08a1.5,1.5,0,0,1,0,3.006Z" transform="translate(-126.86 -604.461)"/></g><g transform="translate(42.557 37.516)"><g class="b" transform="matrix(1, 0, 0, 1, -44.56, -39.52)"><path class="a" d="M165.669,621.089h-7.46a4.2,4.2,0,0,1-4.2-4.2v-5.117a31.5,31.5,0,0,1-7.192-2.908l-3.569,3.567a4.306,4.306,0,0,1-5.93,0l-5.279-5.288a4.189,4.189,0,0,1,0-5.926l3.38-3.385a31.151,31.151,0,0,1-3.253-7.374h-4.586a4.2,4.2,0,0,1-4.2-4.2V578.8a4.2,4.2,0,0,1,4.2-4.2h4.2a30.568,30.568,0,0,1,3.114-7.924l-2.858-2.855a4.105,4.105,0,0,1-1.227-2.927,4.2,4.2,0,0,1,1.224-3.006l5.281-5.284a4.337,4.337,0,0,1,5.921-.009l2.671,2.668a30.83,30.83,0,0,1,8.1-3.44v-3.673a4.2,4.2,0,0,1,4.2-4.2h7.46a4.2,4.2,0,0,1,4.2,4.2v3.673a30.767,30.767,0,0,1,8.118,3.438l2.641-2.652a4.351,4.351,0,0,1,5.942-.016l5.272,5.3a4.161,4.161,0,0,1,1.243,3.006,4.092,4.092,0,0,1-1.268,2.948L189,566.68a30.682,30.682,0,0,1,3.1,7.927h4.221a4.189,4.189,0,0,1,4.172,4.2v7.462a4.189,4.189,0,0,1-4.172,4.2h-4.6a30.475,30.475,0,0,1-3.237,7.379l3.366,3.384a4.151,4.151,0,0,1-.018,5.937l-5.24,5.267a4.325,4.325,0,0,1-5.947.011l-3.56-3.574a31.43,31.43,0,0,1-7.21,2.915v5.11A4.2,4.2,0,0,1,165.669,621.089Zm-19.094-15.6a1.509,1.509,0,0,1,.779.217,28.469,28.469,0,0,0,8.493,3.435,1.5,1.5,0,0,1,1.169,1.465v6.291a1.207,1.207,0,0,0,1.194,1.19h7.46a1.191,1.191,0,0,0,1.194-1.19V610.6a1.5,1.5,0,0,1,1.181-1.467,28.3,28.3,0,0,0,8.509-3.435,1.5,1.5,0,0,1,1.837.226l4.364,4.385a1.258,1.258,0,0,0,1.7,0l5.256-5.279a1.164,1.164,0,0,0,.365-.843,1.137,1.137,0,0,0-.351-.829l-4.225-4.251a1.5,1.5,0,0,1-.187-1.887A27.548,27.548,0,0,0,189.1,588.6a1.5,1.5,0,0,1,1.458-1.141h5.755a1.179,1.179,0,0,0,1.169-1.19V578.8a1.169,1.169,0,0,0-1.169-1.194h-5.431a1.5,1.5,0,0,1-1.474-1.211,27.7,27.7,0,0,0-3.572-9.172,1.5,1.5,0,0,1,.215-1.844l3.657-3.678a1.142,1.142,0,0,0,.365-.827,1.175,1.175,0,0,0-.353-.853l-5.27-5.293a1.305,1.305,0,0,0-1.721.023l-3.465,3.484a1.5,1.5,0,0,1-1.892.2,27.787,27.787,0,0,0-9.333-3.96,1.5,1.5,0,0,1-1.178-1.467v-4.854a1.192,1.192,0,0,0-1.194-1.19h-7.46a1.209,1.209,0,0,0-1.194,1.19v4.854a1.5,1.5,0,0,1-1.174,1.467,27.853,27.853,0,0,0-9.317,3.96,1.5,1.5,0,0,1-1.887-.192l-3.509-3.509a1.276,1.276,0,0,0-1.7.011l-5.265,5.27a1.2,1.2,0,0,0-.349.862,1.139,1.139,0,0,0,.333.811l3.692,3.689a1.5,1.5,0,0,1,.219,1.848,27.634,27.634,0,0,0-3.592,9.169A1.5,1.5,0,0,1,133,577.61h-5.411a1.194,1.194,0,0,0-1.192,1.194v7.462a1.205,1.205,0,0,0,1.192,1.19h5.729a1.5,1.5,0,0,1,1.455,1.13,28.139,28.139,0,0,0,3.819,8.633,1.507,1.507,0,0,1-.189,1.892l-4.232,4.235a1.188,1.188,0,0,0,0,1.677l5.284,5.288a1.232,1.232,0,0,0,1.682,0l4.385-4.387A1.5,1.5,0,0,1,146.575,605.485Z" transform="translate(-78.83 -504.44)"/></g></g><g transform="translate(64.669 59.627)"><path class="a" d="M149.411,586.453a16.461,16.461,0,1,1,16.447-16.472A16.48,16.48,0,0,1,149.411,586.453Zm0-29.915a13.455,13.455,0,1,0,13.443,13.443A13.461,13.461,0,0,0,149.411,556.538Z" transform="translate(-132.96 -553.532)"/></g><g transform="translate(79.618)"><path class="a" d="M140.933,543.507a1.5,1.5,0,0,1-1.5-1.5v-9.752a1.5,1.5,0,0,1,3,0v9.752A1.5,1.5,0,0,1,140.933,543.507Z" transform="translate(-139.431 -530.752)"/></g><g transform="translate(114.538 10.669)"><path class="a" d="M156.045,546.822a1.473,1.473,0,0,1-.749-.2,1.5,1.5,0,0,1-.55-2.049l4.877-8.448a1.5,1.5,0,0,1,2.6,1.5l-4.877,8.446A1.506,1.506,0,0,1,156.045,546.822Z" transform="translate(-154.546 -535.37)"/></g><g transform="translate(140.096 39.8)"><path class="a" d="M167.111,555.861a1.5,1.5,0,0,1-.751-2.8l8.446-4.877a1.5,1.5,0,1,1,1.5,2.6l-8.449,4.877A1.489,1.489,0,0,1,167.111,555.861Z" transform="translate(-165.609 -547.98)"/></g><g transform="translate(149.459 79.593)"><path class="a" d="M180.915,568.21h-9.752a1.5,1.5,0,0,1,0-3.006h9.752a1.5,1.5,0,0,1,0,3.006Z" transform="translate(-169.662 -565.204)"/></g><g transform="translate(140.096 114.542)"><path class="a" d="M175.557,588.208a1.5,1.5,0,0,1-.751-.2l-8.446-4.872a1.5,1.5,0,0,1,1.5-2.6l8.449,4.872a1.5,1.5,0,0,1-.751,2.8Z" transform="translate(-165.609 -580.332)"/></g><g transform="translate(10.671 114.542)"><path class="a" d="M111.089,588.208a1.5,1.5,0,0,1-.751-2.8l8.446-4.872a1.5,1.5,0,0,1,1.5,2.6l-8.449,4.872A1.486,1.486,0,0,1,111.089,588.208Z" transform="translate(-109.587 -580.332)"/></g><g transform="translate(0 79.593)"><path class="a" d="M116.242,568.21H106.47a1.5,1.5,0,0,1,0-3.006h9.772a1.5,1.5,0,0,1,0,3.006Z" transform="translate(-104.968 -565.204)"/></g><g transform="translate(10.671 39.8)"><path class="a" d="M119.535,555.861a1.5,1.5,0,0,1-.751-.2l-8.446-4.877a1.5,1.5,0,0,1,1.5-2.6l8.449,4.877a1.5,1.5,0,0,1-.751,2.8Z" transform="translate(-109.587 -547.98)"/></g><g transform="translate(39.818 10.669)"><path class="a" d="M128.584,546.822a1.5,1.5,0,0,1-1.3-.751l-4.879-8.446a1.5,1.5,0,0,1,2.6-1.5l4.879,8.448a1.5,1.5,0,0,1-.55,2.049A1.481,1.481,0,0,1,128.584,546.822Z" transform="translate(-122.203 -535.37)"/></g></g></g></svg>